# xmcd
#
# Track frame offsets: 
#        150
#        14905
#        32692
#        43400
#        55857
#        68292
#        85140
#        93542
#        107552
#        120342
#        133520
#
# Disc length: 1946 seconds
#
# Revision: 0
# Processed by: cddbd v1.5.2PL0 Copyright (c) Steve Scherf et al.
# Submitted via: ExactAudioCopy v0.95b4
#
DISCID=8c07980b
DTITLE=Michael Dielmayr und Steve Müller - Keiner schreibt Dir vor wie
DTITLE=man lebt
DYEAR=1900
DGENRE=Blues
TTITLE0=Harlem is a Dreck dagegn
TTITLE1=Wieder moi
TTITLE2=Ich kämpfe für das Recht der Frau
TTITLE3=Ute Zimmermann
TTITLE4=1 und 1 macht 2
TTITLE5=Keiner schreibt Dir vor wie man lebt
TTITLE6=Träume werden wahr
TTITLE7=Fang i o mi zu fragn, ...
TTITLE8=Kannst Di no erinnern
TTITLE9=Sau guat drauf
TTITLE10=Lass mich los
EXTD=
EXTT0=
EXTT1=
EXTT2=
EXTT3=
EXTT4=
EXTT5=
EXTT6=
EXTT7=
EXTT8=
EXTT9=
EXTT10=
PLAYORDER=
